<svg width="26" height="26" viewBox="0 0 26 26" fill="none" xmlns="http://www.w3.org/2000/svg">
<path d="M11.7477 6.75H14.2473V9.25H11.7477V6.75ZM11.7477 11.75H14.2473V19.25H11.7477V11.75ZM12.9975 0.5C6.09867 0.5 0.499584 6.1 0.499584 13C0.499584 19.9 6.09867 25.5 12.9975 25.5C19.8964 25.5 25.4955 19.9 25.4955 13C25.4955 6.1 19.8964 0.5 12.9975 0.5ZM12.9975 23C7.48594 23 2.99918 18.5125 2.99918 13C2.99918 7.4875 7.48594 3 12.9975 3C18.5091 3 22.9959 7.4875 22.9959 13C22.9959 18.5125 18.5091 23 12.9975 23Z" fill="black"/>
</svg>
